<?xml version="1.0" encoding="iso-8859-1"?>
<!-- Generator: Adobe Illustrator 18.0.0, SVG Export Plug-In . SVG Version: 6.00 Build 0)  -->
<!DOCTYPE svg PUBLIC "-//W3C//DTD SVG 1.1//EN" "http://www.w3.org/Graphics/SVG/1.1/DTD/svg11.dtd">
<svg version="1.1" id="Capa_1" xmlns="http://www.w3.org/2000/svg" xmlns:xlink="http://www.w3.org/1999/xlink" x="0px" y="0px"
	 viewBox="0 0 341.078 341.078" style="enable-background:new 0 0 341.078 341.078;" xml:space="preserve">
<g>
	<path d="M234.414,176.041c0-32.189-26.186-58.377-58.373-58.377c-32.191,0-58.379,26.188-58.379,58.377
		c0,32.188,26.188,58.375,58.379,58.375C208.228,234.416,234.414,208.229,234.414,176.041z M132.662,176.041
		c0-23.918,19.46-43.377,43.379-43.377c23.916,0,43.373,19.459,43.373,43.377c0,23.917-19.457,43.375-43.373,43.375
		C152.122,219.416,132.662,199.958,132.662,176.041z"/>
	<path d="M305.735,229.463c-6.395-12.787-19.896-21.297-34.702-21.297c-20.344,0-37.063,15.526-38.517,35.143
		c-13.319,2.421-23.438,13.93-23.438,27.72c0,15.542,12.856,28.188,28.66,28.188h67.838c19.576,0,35.502-15.646,35.502-34.877
		C341.078,245.161,325.238,229.548,305.735,229.463z M305.576,284.216h-67.838c-7.532,0-13.66-5.916-13.66-13.188
		c0-7.272,6.128-13.188,13.66-13.188c0.441,0,0.964,0.037,1.644,0.115c2.31,0.267,4.621-0.555,6.244-2.227
		c1.623-1.672,2.376-4.003,2.039-6.308c-0.166-1.141-0.251-2.263-0.251-3.334c0-12.639,10.596-22.921,23.619-22.921
		c10.378,0,19.687,6.738,22.639,16.386c1.103,3.604,4.71,5.831,8.422,5.201c1.137-0.192,2.309-0.29,3.482-0.29
		c11.305,0,20.502,8.917,20.502,19.877C326.078,275.3,316.881,284.216,305.576,284.216z"/>
	<path d="M132,98.037c0-19.179-15.839-34.792-35.342-34.877c-6.396-12.787-19.896-21.297-34.703-21.297
		c-20.344,0-37.063,15.526-38.517,35.144C10.119,79.426,0,90.935,0,104.725c0,15.543,12.856,28.188,28.66,28.188h67.836
		C116.073,132.913,132,117.267,132,98.037z M15,104.725c0-7.272,6.128-13.188,13.66-13.188c0.442,0,0.962,0.037,1.635,0.115
		c2.312,0.271,4.624-0.55,6.25-2.222c1.624-1.672,2.379-4.004,2.042-6.311c-0.166-1.142-0.251-2.264-0.251-3.336
		c0-12.639,10.596-22.921,23.619-22.921c10.378,0,19.687,6.738,22.639,16.385c1.102,3.601,4.712,5.826,8.412,5.202
		c1.148-0.192,2.322-0.29,3.49-0.29c11.306,0,20.504,8.917,20.504,19.878c0,10.959-9.198,19.876-20.504,19.876H28.66
		C21.128,117.913,15,111.997,15,104.725z"/>
</g>
<g>
</g>
<g>
</g>
<g>
</g>
<g>
</g>
<g>
</g>
<g>
</g>
<g>
</g>
<g>
</g>
<g>
</g>
<g>
</g>
<g>
</g>
<g>
</g>
<g>
</g>
<g>
</g>
<g>
</g>
</svg>
